<mxfile host="app.diagrams.net" modified="2024-05-17T13:08:40.792Z" agent="Mozilla/5.0 (Windows NT 10.0; Win64; x64) AppleWebKit/537.36 (KHTML, like Gecko) Chrome/124.0.0.0 Safari/537.36" etag="Ikw_mCdOrNUrHZNY9B50" version="24.4.3" type="device">
  <diagram name="Page-1" id="jt26cOe3VnoSrEtxHIvV">
    <mxGraphModel dx="1313" dy="745" grid="1" gridSize="10" guides="1" tooltips="1" connect="1" arrows="1" fold="1" page="1" pageScale="1" pageWidth="900" pageHeight="1600" math="0" shadow="0">
      <root>
        <mxCell id="0" />
        <mxCell id="1" parent="0" />
        <mxCell id="XOe30KgLSW96NKKmV8az-3" style="edgeStyle=orthogonalEdgeStyle;rounded=0;orthogonalLoop=1;jettySize=auto;html=1;exitX=0.5;exitY=1;exitDx=0;exitDy=0;entryX=0.5;entryY=0;entryDx=0;entryDy=0;" edge="1" parent="1" source="XOe30KgLSW96NKKmV8az-1" target="XOe30KgLSW96NKKmV8az-2">
          <mxGeometry relative="1" as="geometry" />
        </mxCell>
        <mxCell id="XOe30KgLSW96NKKmV8az-1" value="&lt;font style=&quot;font-size: 16px;&quot;&gt;LoRaWAN test&lt;/font&gt;" style="rounded=1;whiteSpace=wrap;html=1;" vertex="1" parent="1">
          <mxGeometry x="260" y="150" width="120" height="60" as="geometry" />
        </mxCell>
        <mxCell id="XOe30KgLSW96NKKmV8az-7" style="edgeStyle=orthogonalEdgeStyle;rounded=0;orthogonalLoop=1;jettySize=auto;html=1;exitX=1;exitY=0.5;exitDx=0;exitDy=0;" edge="1" parent="1" source="XOe30KgLSW96NKKmV8az-2" target="XOe30KgLSW96NKKmV8az-5">
          <mxGeometry relative="1" as="geometry" />
        </mxCell>
        <mxCell id="XOe30KgLSW96NKKmV8az-2" value="&lt;span style=&quot;font-size: 16px;&quot;&gt;Berichten Ontvangen bij gateway&lt;/span&gt;" style="rounded=1;whiteSpace=wrap;html=1;fillColor=#d5e8d4;strokeColor=#82b366;" vertex="1" parent="1">
          <mxGeometry x="260" y="270" width="120" height="60" as="geometry" />
        </mxCell>
        <mxCell id="XOe30KgLSW96NKKmV8az-9" style="edgeStyle=orthogonalEdgeStyle;rounded=0;orthogonalLoop=1;jettySize=auto;html=1;exitX=0.5;exitY=1;exitDx=0;exitDy=0;" edge="1" parent="1" source="XOe30KgLSW96NKKmV8az-5">
          <mxGeometry relative="1" as="geometry">
            <mxPoint x="490" y="370" as="targetPoint" />
          </mxGeometry>
        </mxCell>
        <mxCell id="XOe30KgLSW96NKKmV8az-17" style="edgeStyle=orthogonalEdgeStyle;rounded=0;orthogonalLoop=1;jettySize=auto;html=1;exitX=1;exitY=0.5;exitDx=0;exitDy=0;entryX=1;entryY=0.5;entryDx=0;entryDy=0;" edge="1" parent="1" source="XOe30KgLSW96NKKmV8az-5" target="XOe30KgLSW96NKKmV8az-16">
          <mxGeometry relative="1" as="geometry">
            <Array as="points">
              <mxPoint x="590" y="300" />
              <mxPoint x="590" y="660" />
            </Array>
          </mxGeometry>
        </mxCell>
        <mxCell id="XOe30KgLSW96NKKmV8az-5" value="&lt;font style=&quot;font-size: 16px;&quot;&gt;Geen antwoord&lt;/font&gt;" style="rounded=1;whiteSpace=wrap;html=1;fillColor=#f8cecc;strokeColor=#b85450;" vertex="1" parent="1">
          <mxGeometry x="430" y="270" width="120" height="60" as="geometry" />
        </mxCell>
        <mxCell id="XOe30KgLSW96NKKmV8az-11" style="edgeStyle=orthogonalEdgeStyle;rounded=0;orthogonalLoop=1;jettySize=auto;html=1;exitX=0.5;exitY=1;exitDx=0;exitDy=0;" edge="1" parent="1" source="XOe30KgLSW96NKKmV8az-10">
          <mxGeometry relative="1" as="geometry">
            <mxPoint x="489.608695652174" y="479.9999999999999" as="targetPoint" />
          </mxGeometry>
        </mxCell>
        <mxCell id="XOe30KgLSW96NKKmV8az-10" value="&lt;span style=&quot;font-size: 16px;&quot;&gt;Library code werkte alleen met ABP&lt;/span&gt;" style="rounded=1;whiteSpace=wrap;html=1;fillColor=#f8cecc;strokeColor=#b85450;" vertex="1" parent="1">
          <mxGeometry x="430" y="370" width="120" height="60" as="geometry" />
        </mxCell>
        <mxCell id="XOe30KgLSW96NKKmV8az-14" style="edgeStyle=orthogonalEdgeStyle;rounded=0;orthogonalLoop=1;jettySize=auto;html=1;exitX=0.5;exitY=1;exitDx=0;exitDy=0;" edge="1" parent="1" source="XOe30KgLSW96NKKmV8az-12" target="XOe30KgLSW96NKKmV8az-13">
          <mxGeometry relative="1" as="geometry" />
        </mxCell>
        <mxCell id="XOe30KgLSW96NKKmV8az-12" value="&lt;span style=&quot;font-size: 16px;&quot;&gt;Omgeschreven naar OTAA&lt;/span&gt;" style="rounded=1;whiteSpace=wrap;html=1;fillColor=#d5e8d4;strokeColor=#82b366;" vertex="1" parent="1">
          <mxGeometry x="430" y="480" width="120" height="60" as="geometry" />
        </mxCell>
        <mxCell id="XOe30KgLSW96NKKmV8az-13" value="&lt;span style=&quot;font-size: 16px;&quot;&gt;Error:&lt;/span&gt;&lt;div&gt;&lt;span style=&quot;font-size: 16px;&quot;&gt;LoRaMacBusy&lt;/span&gt;&lt;/div&gt;" style="rounded=1;whiteSpace=wrap;html=1;fillColor=#f8cecc;strokeColor=#b85450;" vertex="1" parent="1">
          <mxGeometry x="430" y="570" width="120" height="60" as="geometry" />
        </mxCell>
        <mxCell id="XOe30KgLSW96NKKmV8az-19" style="edgeStyle=orthogonalEdgeStyle;rounded=0;orthogonalLoop=1;jettySize=auto;html=1;exitX=0;exitY=0.5;exitDx=0;exitDy=0;entryX=1;entryY=0.5;entryDx=0;entryDy=0;" edge="1" parent="1" source="XOe30KgLSW96NKKmV8az-16" target="XOe30KgLSW96NKKmV8az-18">
          <mxGeometry relative="1" as="geometry" />
        </mxCell>
        <mxCell id="XOe30KgLSW96NKKmV8az-16" value="&lt;span style=&quot;font-size: 16px;&quot;&gt;Wacht op antwoord van gateway&lt;/span&gt;" style="rounded=1;whiteSpace=wrap;html=1;fillColor=#f8cecc;strokeColor=#b85450;" vertex="1" parent="1">
          <mxGeometry x="430" y="630" width="120" height="60" as="geometry" />
        </mxCell>
        <mxCell id="XOe30KgLSW96NKKmV8az-25" style="edgeStyle=orthogonalEdgeStyle;rounded=0;orthogonalLoop=1;jettySize=auto;html=1;exitX=0.5;exitY=1;exitDx=0;exitDy=0;entryX=0.5;entryY=0;entryDx=0;entryDy=0;" edge="1" parent="1" source="XOe30KgLSW96NKKmV8az-18" target="XOe30KgLSW96NKKmV8az-24">
          <mxGeometry relative="1" as="geometry" />
        </mxCell>
        <mxCell id="XOe30KgLSW96NKKmV8az-18" value="&lt;span style=&quot;font-size: 16px;&quot;&gt;Antenne ontvangt geen antwoord&lt;/span&gt;" style="rounded=1;whiteSpace=wrap;html=1;fillColor=#f8cecc;strokeColor=#b85450;" vertex="1" parent="1">
          <mxGeometry x="270" y="630" width="120" height="60" as="geometry" />
        </mxCell>
        <mxCell id="XOe30KgLSW96NKKmV8az-23" style="edgeStyle=orthogonalEdgeStyle;rounded=0;orthogonalLoop=1;jettySize=auto;html=1;exitX=0.5;exitY=1;exitDx=0;exitDy=0;" edge="1" parent="1" source="XOe30KgLSW96NKKmV8az-20" target="XOe30KgLSW96NKKmV8az-22">
          <mxGeometry relative="1" as="geometry" />
        </mxCell>
        <mxCell id="XOe30KgLSW96NKKmV8az-20" value="&lt;span style=&quot;font-size: 16px;&quot;&gt;Betere Antenne besteld&lt;/span&gt;" style="rounded=1;whiteSpace=wrap;html=1;fillColor=#d5e8d4;strokeColor=#82b366;" vertex="1" parent="1">
          <mxGeometry x="110" y="720" width="120" height="60" as="geometry" />
        </mxCell>
        <mxCell id="XOe30KgLSW96NKKmV8az-41" style="edgeStyle=orthogonalEdgeStyle;rounded=0;orthogonalLoop=1;jettySize=auto;html=1;exitX=0.5;exitY=1;exitDx=0;exitDy=0;entryX=0.5;entryY=0;entryDx=0;entryDy=0;" edge="1" parent="1" source="XOe30KgLSW96NKKmV8az-22" target="XOe30KgLSW96NKKmV8az-40">
          <mxGeometry relative="1" as="geometry" />
        </mxCell>
        <mxCell id="XOe30KgLSW96NKKmV8az-22" value="&lt;span style=&quot;font-size: 16px;&quot;&gt;Lange levertijd&lt;/span&gt;" style="rounded=1;whiteSpace=wrap;html=1;fillColor=#f8cecc;strokeColor=#b85450;" vertex="1" parent="1">
          <mxGeometry x="110" y="830" width="120" height="60" as="geometry" />
        </mxCell>
        <mxCell id="XOe30KgLSW96NKKmV8az-26" style="edgeStyle=orthogonalEdgeStyle;rounded=0;orthogonalLoop=1;jettySize=auto;html=1;exitX=0;exitY=0.5;exitDx=0;exitDy=0;entryX=1;entryY=0.5;entryDx=0;entryDy=0;" edge="1" parent="1" source="XOe30KgLSW96NKKmV8az-24" target="XOe30KgLSW96NKKmV8az-20">
          <mxGeometry relative="1" as="geometry" />
        </mxCell>
        <mxCell id="XOe30KgLSW96NKKmV8az-28" style="edgeStyle=orthogonalEdgeStyle;rounded=0;orthogonalLoop=1;jettySize=auto;html=1;exitX=0.5;exitY=1;exitDx=0;exitDy=0;" edge="1" parent="1" source="XOe30KgLSW96NKKmV8az-24" target="XOe30KgLSW96NKKmV8az-27">
          <mxGeometry relative="1" as="geometry" />
        </mxCell>
        <mxCell id="XOe30KgLSW96NKKmV8az-24" value="&lt;span style=&quot;font-size: 16px;&quot;&gt;Hypothese getest met geleende Antenne&lt;/span&gt;" style="rounded=1;whiteSpace=wrap;html=1;fillColor=#d5e8d4;strokeColor=#82b366;" vertex="1" parent="1">
          <mxGeometry x="260" y="720" width="140" height="60" as="geometry" />
        </mxCell>
        <mxCell id="XOe30KgLSW96NKKmV8az-30" style="edgeStyle=orthogonalEdgeStyle;rounded=0;orthogonalLoop=1;jettySize=auto;html=1;exitX=0.5;exitY=1;exitDx=0;exitDy=0;entryX=0.5;entryY=0;entryDx=0;entryDy=0;" edge="1" parent="1" source="XOe30KgLSW96NKKmV8az-27" target="XOe30KgLSW96NKKmV8az-29">
          <mxGeometry relative="1" as="geometry" />
        </mxCell>
        <mxCell id="XOe30KgLSW96NKKmV8az-27" value="&lt;span style=&quot;font-size: 16px;&quot;&gt;Zwakke antenne getest dichtbij gateway in stadslab&lt;/span&gt;" style="rounded=1;whiteSpace=wrap;html=1;fillColor=#d5e8d4;strokeColor=#82b366;" vertex="1" parent="1">
          <mxGeometry x="255" y="830" width="150" height="60" as="geometry" />
        </mxCell>
        <mxCell id="XOe30KgLSW96NKKmV8az-49" style="edgeStyle=orthogonalEdgeStyle;rounded=0;orthogonalLoop=1;jettySize=auto;html=1;exitX=0.5;exitY=1;exitDx=0;exitDy=0;entryX=0.5;entryY=0;entryDx=0;entryDy=0;" edge="1" parent="1" source="XOe30KgLSW96NKKmV8az-29" target="XOe30KgLSW96NKKmV8az-46">
          <mxGeometry relative="1" as="geometry" />
        </mxCell>
        <mxCell id="XOe30KgLSW96NKKmV8az-29" value="&lt;span style=&quot;font-size: 16px;&quot;&gt;Verbinding lukte&lt;/span&gt;" style="rounded=1;whiteSpace=wrap;html=1;fillColor=#d5e8d4;strokeColor=#82b366;" vertex="1" parent="1">
          <mxGeometry x="260" y="920" width="140" height="60" as="geometry" />
        </mxCell>
        <mxCell id="XOe30KgLSW96NKKmV8az-34" style="edgeStyle=orthogonalEdgeStyle;rounded=0;orthogonalLoop=1;jettySize=auto;html=1;exitX=0.5;exitY=1;exitDx=0;exitDy=0;entryX=0.5;entryY=0;entryDx=0;entryDy=0;" edge="1" parent="1" source="XOe30KgLSW96NKKmV8az-31" target="XOe30KgLSW96NKKmV8az-33">
          <mxGeometry relative="1" as="geometry" />
        </mxCell>
        <mxCell id="XOe30KgLSW96NKKmV8az-31" value="&lt;span style=&quot;font-size: 16px;&quot;&gt;LoRa verbinding lukte niet meer in stadslab&lt;/span&gt;" style="rounded=1;whiteSpace=wrap;html=1;fillColor=#f8cecc;strokeColor=#b85450;" vertex="1" parent="1">
          <mxGeometry x="260" y="1240" width="140" height="60" as="geometry" />
        </mxCell>
        <mxCell id="XOe30KgLSW96NKKmV8az-36" style="edgeStyle=orthogonalEdgeStyle;rounded=0;orthogonalLoop=1;jettySize=auto;html=1;exitX=0.75;exitY=0;exitDx=0;exitDy=0;entryX=0;entryY=0.5;entryDx=0;entryDy=0;" edge="1" parent="1" source="XOe30KgLSW96NKKmV8az-33" target="XOe30KgLSW96NKKmV8az-35">
          <mxGeometry relative="1" as="geometry" />
        </mxCell>
        <mxCell id="XOe30KgLSW96NKKmV8az-33" value="&lt;span style=&quot;font-size: 16px;&quot;&gt;WiFi voor testen app&lt;/span&gt;" style="rounded=1;whiteSpace=wrap;html=1;fillColor=#d5e8d4;strokeColor=#82b366;" vertex="1" parent="1">
          <mxGeometry x="260" y="1400" width="140" height="60" as="geometry" />
        </mxCell>
        <mxCell id="XOe30KgLSW96NKKmV8az-38" style="edgeStyle=orthogonalEdgeStyle;rounded=0;orthogonalLoop=1;jettySize=auto;html=1;exitX=0.5;exitY=1;exitDx=0;exitDy=0;entryX=0.5;entryY=0;entryDx=0;entryDy=0;" edge="1" parent="1" source="XOe30KgLSW96NKKmV8az-35" target="XOe30KgLSW96NKKmV8az-37">
          <mxGeometry relative="1" as="geometry" />
        </mxCell>
        <mxCell id="XOe30KgLSW96NKKmV8az-35" value="&lt;span style=&quot;font-size: 16px;&quot;&gt;LoRa en Wifi functionaliteit kon niet worden gecombineerd in verband met sketch grootte&lt;/span&gt;" style="rounded=1;whiteSpace=wrap;html=1;fillColor=#f8cecc;strokeColor=#b85450;" vertex="1" parent="1">
          <mxGeometry x="430" y="1290" width="220" height="80" as="geometry" />
        </mxCell>
        <mxCell id="XOe30KgLSW96NKKmV8az-39" style="edgeStyle=orthogonalEdgeStyle;rounded=0;orthogonalLoop=1;jettySize=auto;html=1;exitX=0;exitY=0.5;exitDx=0;exitDy=0;entryX=1;entryY=0.5;entryDx=0;entryDy=0;" edge="1" parent="1" source="XOe30KgLSW96NKKmV8az-37" target="XOe30KgLSW96NKKmV8az-33">
          <mxGeometry relative="1" as="geometry" />
        </mxCell>
        <mxCell id="XOe30KgLSW96NKKmV8az-37" value="&lt;span style=&quot;font-size: 16px;&quot;&gt;Aparte app gemaakt voor wifi functionaliteit&lt;/span&gt;" style="rounded=1;whiteSpace=wrap;html=1;fillColor=#d5e8d4;strokeColor=#82b366;" vertex="1" parent="1">
          <mxGeometry x="470" y="1400" width="140" height="60" as="geometry" />
        </mxCell>
        <mxCell id="XOe30KgLSW96NKKmV8az-43" style="edgeStyle=orthogonalEdgeStyle;rounded=0;orthogonalLoop=1;jettySize=auto;html=1;exitX=0.5;exitY=1;exitDx=0;exitDy=0;" edge="1" parent="1" source="XOe30KgLSW96NKKmV8az-40" target="XOe30KgLSW96NKKmV8az-42">
          <mxGeometry relative="1" as="geometry" />
        </mxCell>
        <mxCell id="XOe30KgLSW96NKKmV8az-40" value="&lt;span style=&quot;font-size: 16px;&quot;&gt;Factuur werd niet ondertekend door HR-Tech&lt;/span&gt;" style="rounded=1;whiteSpace=wrap;html=1;fillColor=#f8cecc;strokeColor=#b85450;" vertex="1" parent="1">
          <mxGeometry x="100" y="960" width="140" height="80" as="geometry" />
        </mxCell>
        <mxCell id="XOe30KgLSW96NKKmV8az-45" style="edgeStyle=orthogonalEdgeStyle;rounded=0;orthogonalLoop=1;jettySize=auto;html=1;exitX=0.5;exitY=1;exitDx=0;exitDy=0;entryX=0.5;entryY=0;entryDx=0;entryDy=0;" edge="1" parent="1" source="XOe30KgLSW96NKKmV8az-42" target="XOe30KgLSW96NKKmV8az-44">
          <mxGeometry relative="1" as="geometry" />
        </mxCell>
        <mxCell id="XOe30KgLSW96NKKmV8az-42" value="&lt;span style=&quot;font-size: 16px;&quot;&gt;Andere website gebruikt voor bestellen&lt;/span&gt;" style="rounded=1;whiteSpace=wrap;html=1;fillColor=#d5e8d4;strokeColor=#82b366;" vertex="1" parent="1">
          <mxGeometry x="100" y="1100" width="140" height="80" as="geometry" />
        </mxCell>
        <mxCell id="XOe30KgLSW96NKKmV8az-44" value="&lt;span style=&quot;font-size: 16px;&quot;&gt;Niet binnen voor 95% presentatie&lt;/span&gt;" style="rounded=1;whiteSpace=wrap;html=1;fillColor=#f8cecc;strokeColor=#b85450;" vertex="1" parent="1">
          <mxGeometry x="100" y="1230" width="140" height="80" as="geometry" />
        </mxCell>
        <mxCell id="XOe30KgLSW96NKKmV8az-50" style="edgeStyle=orthogonalEdgeStyle;rounded=0;orthogonalLoop=1;jettySize=auto;html=1;exitX=1;exitY=0.5;exitDx=0;exitDy=0;entryX=0.5;entryY=0;entryDx=0;entryDy=0;" edge="1" parent="1" source="XOe30KgLSW96NKKmV8az-46" target="XOe30KgLSW96NKKmV8az-48">
          <mxGeometry relative="1" as="geometry" />
        </mxCell>
        <mxCell id="XOe30KgLSW96NKKmV8az-46" value="&lt;span style=&quot;font-size: 16px;&quot;&gt;TTN kon geen verbining maken met de server&lt;/span&gt;" style="rounded=1;whiteSpace=wrap;html=1;fillColor=#f8cecc;strokeColor=#b85450;" vertex="1" parent="1">
          <mxGeometry x="260" y="1030" width="140" height="60" as="geometry" />
        </mxCell>
        <mxCell id="XOe30KgLSW96NKKmV8az-52" style="edgeStyle=orthogonalEdgeStyle;rounded=0;orthogonalLoop=1;jettySize=auto;html=1;exitX=0.5;exitY=1;exitDx=0;exitDy=0;entryX=0.5;entryY=0;entryDx=0;entryDy=0;" edge="1" parent="1" source="XOe30KgLSW96NKKmV8az-47" target="XOe30KgLSW96NKKmV8az-31">
          <mxGeometry relative="1" as="geometry" />
        </mxCell>
        <mxCell id="XOe30KgLSW96NKKmV8az-47" value="&lt;span style=&quot;font-size: 16px;&quot;&gt;Migreerde server naar azure&lt;/span&gt;" style="rounded=1;whiteSpace=wrap;html=1;fillColor=#d5e8d4;strokeColor=#82b366;" vertex="1" parent="1">
          <mxGeometry x="260" y="1130" width="140" height="60" as="geometry" />
        </mxCell>
        <mxCell id="XOe30KgLSW96NKKmV8az-51" style="edgeStyle=orthogonalEdgeStyle;rounded=0;orthogonalLoop=1;jettySize=auto;html=1;exitX=0.5;exitY=1;exitDx=0;exitDy=0;entryX=1;entryY=0.5;entryDx=0;entryDy=0;" edge="1" parent="1" source="XOe30KgLSW96NKKmV8az-48" target="XOe30KgLSW96NKKmV8az-47">
          <mxGeometry relative="1" as="geometry" />
        </mxCell>
        <mxCell id="XOe30KgLSW96NKKmV8az-48" value="&lt;span style=&quot;font-size: 16px;&quot;&gt;Hogeschool server kon alleen communiceren binnen NL&lt;/span&gt;" style="rounded=1;whiteSpace=wrap;html=1;fillColor=#f8cecc;strokeColor=#b85450;" vertex="1" parent="1">
          <mxGeometry x="460" y="1080" width="190" height="60" as="geometry" />
        </mxCell>
      </root>
    </mxGraphModel>
  </diagram>
</mxfile>
